<svg xmlns="http://www.w3.org/2000/svg" width="840" height="1188" viewBox="0 0 840 1188" role="img" aria-labelledby="t d"><title id="t">The agentic trading frontier</title><desc id="d">Abstract network cover for MarketDeck Fieldnotes 02.</desc><defs><linearGradient id="bg" x1="0" y1="0" x2="0" y2="1"><stop offset="0" stop-color="#07111e"/><stop offset="1" stop-color="#122d49"/></linearGradient></defs><rect width="840" height="1188" fill="url(#bg)"/><rect x="56" y="68" width="44" height="5" fill="#2c96ff"/><text x="116" y="78" fill="#9fb0c0" font-family="Arial,sans-serif" font-size="17" font-weight="700" letter-spacing="2">THE MARKETDECK BRIEF / FIELDNOTES 02</text><text x="56" y="220" fill="#f3f6fa" font-family="Arial,sans-serif" font-size="70" font-weight="700">The agentic</text><text x="56" y="298" fill="#f3f6fa" font-family="Arial,sans-serif" font-size="70" font-weight="700">trading frontier</text><text x="58" y="350" fill="#5ee8dc" font-family="Arial,sans-serif" font-size="19" font-weight="700" letter-spacing="1">AI STRATEGIES · MULTI-AGENT SYSTEMS · LIVE EVIDENCE · RISK</text><g stroke="#1a69a6" stroke-width="2" fill="none" opacity=".9"><path d="M480 370L620 300L720 390L570 520L730 640L500 690L640 820L760 930L540 960L400 820Z"/><path d="M480 370L500 690M570 520L640 820M720 390L730 640"/></g><g fill="#2c96ff"><circle cx="480" cy="370" r="10"/><circle cx="570" cy="520" r="10"/><circle cx="640" cy="820" r="10"/></g><g fill="#5ee8dc"><circle cx="620" cy="300" r="6"/><circle cx="720" cy="390" r="6"/><circle cx="730" cy="640" r="6"/><circle cx="500" cy="690" r="6"/><circle cx="760" cy="930" r="6"/><circle cx="540" cy="960" r="6"/><circle cx="400" cy="820" r="6"/></g><text x="58" y="1055" fill="#f3f6fa" font-family="Arial,sans-serif" font-size="22" font-weight="700">SEPTEMBER 2026</text><text x="58" y="1087" fill="#9fb0c0" font-family="Arial,sans-serif" font-size="15">Research and education. Not investment advice.</text><line x1="56" y1="1125" x2="784" y2="1125" stroke="#263546"/><text x="56" y="1155" fill="#9fb0c0" font-family="Arial,sans-serif" font-size="13">MARKETDECK / AGENTIC TRADING 2026</text></svg>